<svg width="61" height="50" viewBox="0 0 61 50" fill="none" xmlns="http://www.w3.org/2000/svg">
<path d="M13.2451 19.7808H25.7233C24.0985 18.7409 22.6037 17.779 21.2779 16.8952C19.8282 15.9787 18.5484 14.8176 17.4955 13.4637C16.5517 12.1292 16.0722 10.5218 16.1307 8.88836C16.0947 7.94841 16.2632 7.01184 16.6245 6.14336C16.9858 5.27487 17.5313 4.49517 18.2234 3.8581C19.6677 2.56889 21.5526 1.88473 23.4876 1.94738C25.528 1.86814 27.5307 2.51269 29.1418 3.76711C30.6433 5.01549 31.802 6.62593 32.5083 8.44642C33.2554 10.34 33.6942 12.3411 33.8081 14.3735H35.2379C35.2379 11.6699 35.2379 9.5036 35.2379 7.87451C35.2379 6.21075 35.3029 4.87195 35.3549 3.8451C35.4069 2.81825 35.4718 1.94738 35.5108 1.24549H34.081C34.0233 1.92478 33.8925 2.59588 33.6911 3.24719C33.6347 3.44518 33.5154 3.61945 33.3513 3.74372C33.1872 3.86799 32.9871 3.93551 32.7812 3.93609C32.4803 3.91007 32.1881 3.82153 31.9234 3.67613C31.6114 3.53315 31.2085 3.31218 30.7015 3.01323C29.7218 2.38258 28.6863 1.84307 27.608 1.40146C25.988 0.822255 24.2702 0.566132 22.5518 0.647575C20.4653 0.63102 18.3968 1.03323 16.4686 1.8304C14.6243 2.58841 13.0268 3.84392 11.8543 5.45687C10.6029 7.28984 9.97821 9.47856 10.0736 11.6959C10.017 13.7766 10.5486 15.831 11.6074 17.6231C12.0805 18.3947 12.6291 19.1175 13.2451 19.7808V19.7808Z" fill="white"/>
<path d="M35.2899 29.9061H23.5916C24.5145 30.517 25.3724 31.1279 26.1912 31.7259C27.5164 32.7136 28.6562 33.9282 29.5577 35.3133C30.3906 36.6631 30.815 38.225 30.7796 39.8107C30.8481 41.3837 30.455 42.9425 29.6487 44.295C28.9641 45.4414 27.9429 46.3491 26.7242 46.8946C25.4972 47.4412 24.1679 47.7204 22.8247 47.7135C20.5188 47.827 18.2489 47.1073 16.4297 45.6858C14.7721 44.244 13.5443 42.373 12.8812 40.2786C12.0832 37.9311 11.6024 35.4875 11.4514 33.0127H10.0086C10.0086 36.0412 10.0086 38.5629 10.0086 40.5516C10.0086 42.5403 10.0086 44.165 10.0086 45.3868C10.0086 46.6087 9.82666 47.6875 9.82666 48.6104H11.2045C11.2701 47.9041 11.4274 47.2094 11.6724 46.5437C11.7263 46.3467 11.8431 46.1728 12.005 46.0484C12.1669 45.9241 12.3651 45.856 12.5693 45.8548C13.3404 45.96 14.0707 46.2647 14.6879 46.7386C15.8134 47.3441 16.9821 47.8654 18.1844 48.2984C19.9804 48.8523 21.8562 49.1027 23.7346 49.0393C26.1289 49.0765 28.5065 48.6345 30.7276 47.7395C32.7592 46.9515 34.5228 45.5984 35.8098 43.8401C37.1645 41.84 37.8349 39.455 37.7205 37.0421C37.7809 35.0304 37.2815 33.0414 36.2778 31.2969C35.9788 30.842 35.6409 30.3611 35.2899 29.9061Z" fill="white"/>
<path d="M1.75474 21.5487C1.98893 21.5386 2.22285 21.5739 2.44364 21.6526C2.59365 21.717 2.73726 21.7953 2.87258 21.8866L3.04155 21.9776H3.17153C3.23652 21.9776 3.27552 21.9776 3.31451 21.8736C3.32126 21.7741 3.32126 21.6742 3.31451 21.5747H3.58747V21.9386C3.58747 22.0816 3.58747 22.2766 3.58747 22.5105C3.58747 22.7445 3.58747 23.0434 3.58747 23.4334H3.32751C3.31442 23.1436 3.25291 22.858 3.14554 22.5885C3.03842 22.3372 2.87367 22.1145 2.66461 21.9386C2.4255 21.7588 2.13168 21.667 1.83273 21.6786C1.53968 21.6718 1.2554 21.779 1.03985 21.9776C0.935463 22.0752 0.853513 22.1944 0.799655 22.3268C0.745796 22.4592 0.721312 22.6017 0.727893 22.7445C0.717215 22.987 0.790685 23.2258 0.935862 23.4204C1.08688 23.6246 1.27684 23.7969 1.49478 23.9273L2.26167 24.4082C2.5512 24.5804 2.82909 24.7715 3.09354 24.9802C3.32502 25.1558 3.52312 25.3715 3.67846 25.6171C3.82868 25.8681 3.90525 26.1564 3.89942 26.4489C3.91454 26.7906 3.81879 27.128 3.62647 27.4108C3.45613 27.6715 3.21167 27.8752 2.92457 27.9957C2.61837 28.1167 2.29196 28.1785 1.96271 28.1777C1.70742 28.1844 1.45276 28.1493 1.20882 28.0737C1.04621 28.0394 0.885654 27.996 0.727893 27.9437C0.639082 27.8813 0.536537 27.8412 0.428937 27.8267C0.39887 27.8265 0.369379 27.835 0.344012 27.8511C0.318645 27.8673 0.298485 27.8904 0.285958 27.9177C0.257414 28.0158 0.235698 28.1156 0.220967 28.2167H0C0.00805843 28.0695 0.00805843 27.9219 0 27.7747C0 27.5928 0 27.3718 0 27.0988V26.033H0.246964C0.268484 26.3833 0.338474 26.7288 0.454933 27.0599C0.553026 27.3555 0.733386 27.617 0.974856 27.8137C1.23895 28.0152 1.56595 28.1166 1.89772 28.0997C2.09729 28.089 2.29227 28.0358 2.46964 27.9437C2.64814 27.8541 2.8004 27.7197 2.91157 27.5538C3.03304 27.3405 3.09163 27.0971 3.08055 26.8519C3.08819 26.6235 3.0295 26.3977 2.91157 26.202C2.77512 26.0039 2.60845 25.8285 2.41764 25.6821C2.19668 25.5261 1.94971 25.3571 1.66375 25.1881C1.39055 25.0241 1.12591 24.8462 0.870872 24.6552C0.629641 24.4973 0.425625 24.2889 0.27296 24.0443C0.114759 23.7823 0.0378586 23.4792 0.0519923 23.1734C0.0407325 22.8621 0.122163 22.5545 0.285958 22.2896C0.447469 22.062 0.667546 21.8823 0.922864 21.7696C1.1807 21.6361 1.46464 21.5607 1.75474 21.5487V21.5487Z" fill="white"/>
<path d="M6.81086 23.2772C7.05048 23.2591 7.29115 23.294 7.51578 23.3794C7.74042 23.4647 7.94351 23.5985 8.11067 23.7711C8.44921 24.221 8.59848 24.7855 8.5266 25.3439H5.30308V25.1749H7.64273C7.65742 24.8953 7.63115 24.6151 7.56475 24.3431C7.5191 24.0939 7.40164 23.8635 7.2268 23.6802C7.16762 23.6062 7.09239 23.5467 7.00681 23.5062C6.92124 23.4657 6.82756 23.4452 6.73287 23.4462C6.58341 23.4503 6.43734 23.4916 6.30794 23.5666C6.17854 23.6415 6.06993 23.7475 5.99198 23.8751C5.73785 24.261 5.60229 24.7129 5.60204 25.1749V25.1749C5.59449 25.2744 5.59449 25.3744 5.60204 25.4739C5.59555 25.5821 5.59555 25.6906 5.60204 25.7988C5.59144 26.1639 5.65787 26.527 5.79701 26.8647C5.91281 27.1325 6.0965 27.3655 6.32993 27.5406C6.51906 27.6895 6.75211 27.7718 6.99283 27.7746C7.17031 27.7771 7.34667 27.7462 7.51275 27.6836C7.68374 27.6232 7.83914 27.5255 7.96769 27.3976C8.12236 27.2452 8.24597 27.0642 8.33163 26.8647L8.51361 26.9297C8.4467 27.1449 8.33607 27.3441 8.18865 27.5146C8.02871 27.7047 7.83476 27.8634 7.61674 27.9825C7.36532 28.102 7.08908 28.1599 6.81086 28.1515C6.4259 28.1664 6.04514 28.067 5.71665 27.8657C5.38815 27.6645 5.12664 27.3704 4.96513 27.0207C4.79861 26.635 4.71449 26.2189 4.71817 25.7988C4.70907 25.3266 4.79757 24.8575 4.97813 24.421C5.12318 24.0584 5.37182 23.7464 5.69302 23.5242C6.03164 23.3295 6.42176 23.2434 6.81086 23.2772V23.2772Z" fill="white"/>
<path d="M10.5025 28.1514C10.2772 28.161 10.0532 28.1117 9.85263 28.0085C9.67911 27.9216 9.5346 27.7861 9.43669 27.6185C9.34098 27.4385 9.29183 27.2375 9.29371 27.0336C9.28227 26.797 9.35096 26.5635 9.48868 26.3707C9.61368 26.1991 9.7788 26.0608 9.96961 25.9678C10.1626 25.8579 10.3676 25.7707 10.5805 25.7078L11.1914 25.4998C11.3581 25.4702 11.52 25.4177 11.6724 25.3439C11.7293 25.308 11.7759 25.258 11.8078 25.1988C11.8397 25.1396 11.8557 25.0732 11.8543 25.0059V24.447C11.8671 24.2451 11.8268 24.0435 11.7373 23.8621C11.6753 23.7369 11.5687 23.6396 11.4384 23.5891C11.2994 23.5465 11.1548 23.5246 11.0095 23.5241C10.8472 23.5274 10.6858 23.5492 10.5285 23.5891C10.3631 23.6229 10.2155 23.7152 10.1126 23.8491C10.2386 23.8766 10.3508 23.9478 10.4293 24.0501C10.5078 24.1524 10.5476 24.2792 10.5415 24.408C10.5446 24.4765 10.5322 24.5448 10.5052 24.6078C10.4782 24.6709 10.4373 24.727 10.3855 24.7719C10.2835 24.8572 10.1545 24.9033 10.0216 24.9019C9.94788 24.9065 9.87412 24.8936 9.80634 24.8643C9.73857 24.8349 9.67871 24.7899 9.63166 24.733C9.55453 24.6225 9.51365 24.4907 9.51468 24.356C9.50996 24.2167 9.55105 24.0797 9.63166 23.9661C9.71903 23.8625 9.81953 23.7707 9.93061 23.6931C10.0984 23.5909 10.2771 23.5081 10.4635 23.4461C10.7087 23.3761 10.9625 23.3411 11.2174 23.3422C11.4334 23.3347 11.6491 23.3655 11.8543 23.4331C12.0186 23.4806 12.1698 23.5651 12.2963 23.6801C12.4506 23.8231 12.5591 24.0085 12.6082 24.213C12.6316 24.4638 12.6316 24.7162 12.6082 24.9669V27.4236C12.6031 27.5397 12.6253 27.6555 12.6732 27.7615C12.6993 27.7941 12.7333 27.8196 12.772 27.8355C12.8106 27.8514 12.8527 27.8573 12.8942 27.8525C12.9586 27.8648 13.0247 27.8648 13.0891 27.8525L13.2971 27.7095L13.4011 27.8525C13.287 27.9449 13.1652 28.0276 13.0372 28.0995C12.8913 28.1686 12.7304 28.1999 12.5692 28.1904C12.4208 28.1972 12.2732 28.1659 12.1403 28.0995C12.0242 28.0484 11.9314 27.9556 11.8803 27.8395C11.8128 27.6977 11.7816 27.5414 11.7893 27.3846C11.6544 27.6382 11.4519 27.8496 11.2044 27.9955C10.9866 28.1038 10.7457 28.1573 10.5025 28.1514ZM10.8275 27.7875C11.0267 27.7896 11.2217 27.7306 11.3864 27.6185C11.5772 27.48 11.7366 27.3029 11.8543 27.0986V25.3439C11.7716 25.4532 11.6649 25.5422 11.5424 25.6038L11.1264 25.7858C10.9625 25.852 10.8057 25.9347 10.6585 26.0328C10.5095 26.1272 10.3812 26.2511 10.2816 26.3967C10.1808 26.5795 10.1314 26.7861 10.1386 26.9946C10.1313 27.2067 10.2005 27.4143 10.3336 27.5795C10.3978 27.6454 10.4746 27.6978 10.5595 27.7335C10.6443 27.7692 10.7354 27.7876 10.8275 27.7875V27.7875Z" fill="white"/>
<path d="M16.5725 23.2773C16.7217 23.2777 16.8687 23.3134 17.0015 23.3813C17.1192 23.4394 17.2183 23.5295 17.2874 23.6412C17.3605 23.7432 17.3971 23.8668 17.3914 23.9922C17.3964 24.1375 17.3504 24.28 17.2614 24.3951C17.2164 24.4519 17.1591 24.4977 17.0938 24.5293C17.0285 24.5608 16.957 24.5771 16.8845 24.5771C16.7599 24.5756 16.64 24.5295 16.5465 24.4471C16.4942 24.4054 16.4528 24.3518 16.4256 24.2907C16.3985 24.2296 16.3864 24.1629 16.3906 24.0962C16.3915 23.9878 16.428 23.8827 16.4945 23.7972C16.5539 23.7224 16.624 23.6567 16.7025 23.6022C16.6817 23.5736 16.6543 23.5504 16.6226 23.5345C16.591 23.5187 16.5559 23.5107 16.5205 23.5112C16.3341 23.5138 16.1529 23.5727 16.0006 23.6802C15.8338 23.7942 15.6958 23.9455 15.5977 24.1221C15.4827 24.2939 15.395 24.4825 15.3377 24.6811C15.2842 24.8584 15.2536 25.0419 15.2467 25.227V27.1507C15.2336 27.2644 15.2507 27.3796 15.2963 27.4846C15.342 27.5896 15.4145 27.6807 15.5067 27.7486C15.7225 27.8624 15.9649 27.9163 16.2086 27.9046V28.0866H13.726V27.9436C13.9148 27.959 14.1031 27.9085 14.2589 27.8006C14.3194 27.7294 14.3645 27.6465 14.3913 27.557C14.4182 27.4675 14.4262 27.3734 14.4149 27.2807V24.3951C14.4349 24.1855 14.3846 23.9751 14.2719 23.7972C14.2034 23.7229 14.118 23.6664 14.0229 23.6325C13.9278 23.5985 13.8259 23.5881 13.726 23.6022V23.4073H14.2849H14.7918C14.9414 23.3832 15.0891 23.3484 15.2337 23.3033V24.4471C15.3085 24.2592 15.4045 24.0804 15.5197 23.9142C15.6408 23.7348 15.7952 23.5804 15.9746 23.4592C16.1505 23.3387 16.3593 23.2752 16.5725 23.2773V23.2773Z" fill="white"/>
<path d="M19.8871 23.2774C20.0762 23.2769 20.2643 23.3031 20.446 23.3554C20.6243 23.3936 20.7926 23.4689 20.94 23.5764C21.0656 23.6562 21.1721 23.7627 21.2519 23.8883C21.3275 23.9995 21.3683 24.1308 21.3689 24.2653C21.3738 24.3347 21.3635 24.4044 21.3388 24.4694C21.3141 24.5345 21.2756 24.5935 21.2259 24.6422C21.1821 24.6876 21.1296 24.7236 21.0715 24.7482C21.0135 24.7728 20.951 24.7854 20.888 24.7852C20.7606 24.7905 20.6357 24.7489 20.537 24.6682C20.4866 24.6279 20.4462 24.5763 20.4191 24.5177C20.392 24.459 20.379 24.3948 20.381 24.3303C20.3737 24.2066 20.4158 24.085 20.498 23.9923C20.566 23.9115 20.6565 23.8526 20.758 23.8233C20.6858 23.7013 20.5765 23.6057 20.446 23.5504C20.2857 23.4821 20.1133 23.4467 19.9391 23.4464C19.7821 23.4512 19.6276 23.4865 19.4842 23.5504C19.321 23.6405 19.1792 23.7646 19.0682 23.9143C18.9263 24.1201 18.8208 24.3487 18.7563 24.5902C18.6708 24.9433 18.6315 25.3059 18.6393 25.6691C18.6227 26.1097 18.6843 26.5498 18.8213 26.9689C18.9091 27.2378 19.0769 27.4736 19.3022 27.6448C19.4906 27.7826 19.7187 27.8556 19.9521 27.8527C20.1167 27.8531 20.2799 27.8223 20.433 27.7618C20.6087 27.697 20.7683 27.595 20.901 27.4628C21.0631 27.3089 21.1915 27.123 21.2779 26.9169H21.4469C21.3788 27.1265 21.2779 27.3239 21.1479 27.5018C21.0015 27.7019 20.8157 27.87 20.602 27.9957C20.3433 28.1223 20.058 28.1847 19.7701 28.1777C19.4113 28.1852 19.0583 28.0856 18.7563 27.8917C18.4399 27.6888 18.1875 27.4004 18.0284 27.0599C17.8362 26.6542 17.7426 26.2088 17.7554 25.76C17.7469 25.3117 17.8402 24.8673 18.0284 24.4602C18.191 24.0967 18.4521 23.786 18.7823 23.5634C19.1128 23.3577 19.4983 23.258 19.8871 23.2774V23.2774Z" fill="white"/>
<path d="M23.4613 20.9637V24.3692C23.5703 24.0158 23.8005 23.712 24.1112 23.5114C24.3854 23.3584 24.6941 23.2778 25.0081 23.2774C25.2028 23.2705 25.397 23.3014 25.58 23.3684C25.7363 23.4268 25.8759 23.5225 25.9869 23.6471C26.0979 23.7716 26.1768 23.9214 26.2169 24.0833C26.2699 24.3221 26.2918 24.5668 26.2819 24.8112V27.2418C26.2688 27.3356 26.2771 27.4312 26.3064 27.5213C26.3357 27.6114 26.3851 27.6936 26.4509 27.7617C26.6057 27.8717 26.7948 27.9224 26.9838 27.9047V28.0867H24.8651V27.9437C25.0338 27.9588 25.2017 27.9075 25.3331 27.8007C25.4397 27.6497 25.4861 27.4643 25.463 27.2808V24.6812C25.4769 24.5082 25.4769 24.3343 25.463 24.1613C25.4396 24.0153 25.366 23.882 25.2551 23.7843C25.1197 23.6755 24.947 23.6242 24.7741 23.6414C24.5364 23.6366 24.3037 23.7097 24.1112 23.8493C23.908 23.9925 23.7501 24.191 23.6563 24.4212C23.5488 24.6943 23.4958 24.9857 23.5003 25.2791V27.3068C23.4773 27.4903 23.5236 27.6757 23.6303 27.8267C23.7006 27.8784 23.7805 27.9153 23.8654 27.9354C23.9502 27.9555 24.0383 27.9584 24.1242 27.9437V28.1257H21.9406V27.9437C22.1296 27.9614 22.3187 27.9107 22.4735 27.8007C22.5393 27.7326 22.5887 27.6504 22.6179 27.5603C22.6472 27.4702 22.6556 27.3746 22.6424 27.2808V22.0816C22.6597 21.8704 22.6047 21.6596 22.4865 21.4837C22.418 21.4094 22.3326 21.3529 22.2375 21.3189C22.1424 21.285 22.0405 21.2746 21.9406 21.2887V21.0937H22.5125H23.0194C23.1705 21.0645 23.3185 21.021 23.4613 20.9637V20.9637Z" fill="white"/>
<path d="M28.5438 21.6526V21.8346C28.425 21.8341 28.3083 21.8655 28.2058 21.9255C28.1688 21.9513 28.1395 21.9868 28.1211 22.028C28.1028 22.0693 28.0961 22.1147 28.1018 22.1595C28.1156 22.3097 28.1461 22.458 28.1928 22.6014L29.6096 26.9038L29.3757 27.1248L30.6755 23.0564L30.8184 23.2773L29.3237 28.1386H29.1807L27.257 22.4195C27.2138 22.2339 27.1083 22.0687 26.958 21.9515C26.8619 21.8845 26.7498 21.8442 26.6331 21.8346V21.6526H28.5828H28.5438ZM34.8998 21.6526V21.8346C34.7596 21.8732 34.6304 21.9445 34.5229 22.0425C34.3526 22.198 34.2346 22.4023 34.1849 22.6274L32.4692 28.1386H32.3132L30.3895 22.4195C30.3469 22.2428 30.2571 22.081 30.1295 21.9515C30.0532 21.8847 29.9576 21.8438 29.8566 21.8346V21.6526H31.9233V21.8346C31.7808 21.8169 31.6368 21.8169 31.4943 21.8346C31.4478 21.8447 31.4054 21.8687 31.3729 21.9036C31.3403 21.9384 31.3192 21.9824 31.3124 22.0295C31.3089 22.2071 31.3398 22.3836 31.4034 22.5495L32.7032 26.7348L32.5732 26.8518L33.782 23.0694C33.8752 22.8199 33.9236 22.5558 33.925 22.2895C33.9263 22.2122 33.9079 22.1358 33.8715 22.0676C33.8351 21.9993 33.782 21.9415 33.717 21.8996C33.5597 21.8397 33.3905 21.8174 33.2231 21.8346V21.6526H34.9518H34.8998Z" fill="white"/>
<path d="M36.7456 23.2773C37.1128 23.2741 37.4749 23.3635 37.7984 23.5373C38.1224 23.7174 38.3816 23.9947 38.5393 24.3302C38.7381 24.7797 38.8315 25.2688 38.8123 25.7599C38.8317 26.2427 38.7383 26.7234 38.5393 27.1637C38.3824 27.503 38.1233 27.7848 37.7984 27.9696C37.4736 28.1321 37.1153 28.2166 36.7521 28.2166C36.3889 28.2166 36.0306 28.1321 35.7057 27.9696C35.3808 27.7848 35.1218 27.503 34.9649 27.1637C34.761 26.7246 34.6631 26.2438 34.6789 25.7599C34.6633 25.2677 34.7611 24.7785 34.9649 24.3302C35.1226 23.9947 35.3818 23.7174 35.7057 23.5373C36.0252 23.3651 36.3827 23.2757 36.7456 23.2773ZM36.7456 23.4593C36.5701 23.465 36.3993 23.5174 36.2508 23.6111C36.1023 23.7048 35.9815 23.8363 35.9007 23.9922C35.6369 24.5422 35.5204 25.1514 35.5628 25.7599C35.5202 26.3601 35.6367 26.961 35.9007 27.5017C35.979 27.6607 36.1002 27.7947 36.2507 27.8883C36.4012 27.982 36.5749 28.0316 36.7521 28.0316C36.9293 28.0316 37.103 27.982 37.2535 27.8883C37.404 27.7947 37.5252 27.6607 37.6035 27.5017C37.8624 26.9596 37.9744 26.359 37.9284 25.7599C37.9647 25.1699 37.853 24.5801 37.6035 24.0442C37.5289 23.8767 37.4091 23.7332 37.2576 23.6299C37.1061 23.5266 36.9288 23.4675 36.7456 23.4593V23.4593Z" fill="white"/>
<path d="M42.3214 23.2774C42.471 23.2746 42.6187 23.3104 42.7504 23.3814C42.8695 23.4427 42.9721 23.5319 43.0493 23.6413C43.1169 23.7459 43.153 23.8677 43.1533 23.9923C43.1535 24.139 43.103 24.2814 43.0103 24.3952C42.9659 24.4527 42.9088 24.4991 42.8433 24.5307C42.7779 24.5623 42.706 24.5782 42.6334 24.5772C42.5092 24.5736 42.39 24.5277 42.2954 24.4472C42.2471 24.403 42.2092 24.3485 42.1844 24.2878C42.1597 24.2271 42.1488 24.1617 42.1525 24.0962C42.1487 23.9892 42.1807 23.884 42.2434 23.7973C42.3075 23.7221 42.3819 23.6565 42.4644 23.6023C42.4403 23.5741 42.4104 23.5514 42.3768 23.5357C42.3432 23.52 42.3066 23.5117 42.2694 23.5113C42.0833 23.5154 41.9025 23.5742 41.7495 23.6803C41.5894 23.8019 41.4529 23.9516 41.3466 24.1222C41.2358 24.2946 41.1525 24.4832 41.0996 24.6812C41.0399 24.857 41.0092 25.0414 41.0086 25.2271V27.1508C40.9926 27.2647 41.0084 27.3809 41.0543 27.4864C41.1002 27.5919 41.1743 27.6827 41.2686 27.7487C41.4832 27.8657 41.7265 27.9197 41.9705 27.9047V28.0867H39.5009V27.9437C39.6899 27.9614 39.879 27.9106 40.0338 27.8007C40.0996 27.7326 40.149 27.6503 40.1782 27.5602C40.2075 27.4701 40.2159 27.3746 40.2028 27.2808V24.3952C40.22 24.184 40.165 23.9732 40.0468 23.7973C39.9783 23.723 39.8929 23.6665 39.7978 23.6326C39.7027 23.5986 39.6008 23.5882 39.5009 23.6023V23.4073H40.0728H40.5797L41.0216 23.3034V24.4472C41.0911 24.2569 41.1874 24.0774 41.3076 23.9143C41.4239 23.7353 41.574 23.5807 41.7495 23.4593C41.9188 23.3452 42.1173 23.282 42.3214 23.2774V23.2774Z" fill="white"/>
<path d="M44.8045 20.9637V27.2418C44.7815 27.4253 44.8278 27.6107 44.9345 27.7617C45.0659 27.8685 45.2338 27.9198 45.4024 27.9047V28.0867H43.2968V27.9437C43.4854 27.957 43.673 27.9067 43.8297 27.8007C43.8902 27.7296 43.9353 27.6466 43.9622 27.5571C43.989 27.4676 43.997 27.3735 43.9856 27.2808V22.0816C43.9996 21.8683 43.9498 21.6556 43.8427 21.4707C43.7724 21.3989 43.6867 21.3441 43.5922 21.3103C43.4976 21.2766 43.3966 21.2647 43.2968 21.2757V21.0547C43.4828 21.0674 43.6696 21.0674 43.8557 21.0547C44.0244 21.0684 44.1939 21.0684 44.3626 21.0547L44.8045 20.9637ZM47.6901 23.4074V23.5894C47.5454 23.6022 47.4043 23.6419 47.2742 23.7063C47.1255 23.7903 46.9898 23.8954 46.8712 24.0183L45.5714 25.3181L45.7014 25.0711L47.3912 27.3848C47.4775 27.5086 47.5778 27.622 47.6901 27.7227C47.7887 27.7985 47.905 27.8477 48.0281 27.8657V28.0477H46.2993V27.9437C46.3465 27.9469 46.3939 27.9404 46.4386 27.9248C46.4833 27.9092 46.5243 27.8846 46.5593 27.8527C46.5858 27.822 46.6004 27.7828 46.6004 27.7422C46.6004 27.7017 46.5858 27.6625 46.5593 27.6318L45.5064 26.098C45.4269 25.9721 45.3204 25.8655 45.1945 25.786C45.069 25.7263 44.9303 25.6994 44.7915 25.708V25.5261C44.9579 25.5095 45.1204 25.4656 45.2725 25.3961C45.4021 25.334 45.5172 25.2455 45.6104 25.1361L46.2863 24.4342C46.4388 24.3157 46.5409 24.1439 46.5723 23.9533C46.5742 23.8977 46.5573 23.843 46.5243 23.7981C46.4912 23.7533 46.444 23.721 46.3903 23.7063C46.2323 23.6486 46.0645 23.6221 45.8964 23.6284V23.4464H46.4293H47.7291L47.6901 23.4074Z" fill="white"/>
<path d="M41.9189 29.7113V30.2572C41.5637 30.2639 41.2156 30.3576 40.905 30.5302C40.7969 30.6103 40.7113 30.7171 40.6567 30.8401C40.602 30.9631 40.5801 31.0981 40.5931 31.2321C40.6343 31.6767 40.7348 32.1139 40.892 32.5319L45.1164 45.439L44.4405 46.1279L48.262 33.9227L48.6649 34.5726L44.1676 49.1824H43.7256L37.9415 32.012C37.81 31.4563 37.4881 30.9642 37.0316 30.6212C36.7383 30.4278 36.405 30.3034 36.0568 30.2572V29.7113L37.3566 29.7763H38.9293H40.6061L41.9189 29.7113ZM61.0001 29.7113V30.2572C60.5772 30.3778 60.1865 30.5909 59.8563 30.8811C59.3573 31.3569 59.0054 31.966 58.8424 32.6359L53.6432 49.1824H53.2142L47.5211 32.012C47.3869 31.4854 47.113 31.0049 46.7282 30.6212C46.4923 30.4295 46.2097 30.3039 45.9093 30.2572V29.7113L47.1311 29.7763H48.5479H50.5496L52.0444 29.7113V30.2572C51.6063 30.2667 51.1705 30.3233 50.7446 30.4262C50.603 30.4573 50.4745 30.5314 50.3767 30.6385C50.279 30.7456 50.2168 30.8803 50.1987 31.0241C50.1937 31.5467 50.2817 32.0661 50.4586 32.5579L54.527 45.14L54.1501 45.465L57.7506 34.1436C58.0321 33.3947 58.1858 32.6038 58.2055 31.804C58.2174 31.5722 58.167 31.3415 58.0595 31.1358C57.9521 30.9301 57.7916 30.7569 57.5946 30.6342C57.0578 30.3692 56.4642 30.2398 55.8658 30.2572V29.7113L57.4776 29.7763H59.0114H60.1812L61.0001 29.7113Z" fill="white"/>
</svg>
